<svg width="669" height="236" viewBox="0 0 669 236" fill="none" xmlns="http://www.w3.org/2000/svg">
<g opacity="0.25">
<g opacity="0.2">
<path d="M80.2356 21.603C82.2256 21.3044 83.9048 20.0299 84.7272 18.1935C85.5497 16.3572 85.3825 14.2558 84.2801 12.5723L81.6241 8.51557C81.1835 7.84252 80.5512 7.33984 79.7962 7.06202C79.0411 6.78413 78.234 6.75735 77.4618 6.98425C76.6899 7.21171 76.0259 7.6717 75.5415 8.31441C75.0572 8.95713 74.7984 9.72243 74.7928 10.5273L74.7926 10.5813C74.7637 12.5999 73.8909 14.5306 72.3928 15.8859C72.0064 16.2356 71.703 16.6535 71.4945 17.119C71.3812 17.3721 71.2959 17.6395 71.2404 17.9175C71.0832 18.7067 71.1821 19.5084 71.5265 20.236C71.8708 20.9632 72.4283 21.5477 73.1385 21.9264C73.8488 22.305 74.6447 22.4419 75.4405 22.3227L80.2356 21.603Z" fill="black"/>
<path d="M85.0653 10.8295C85.02 11.6623 85.3508 12.4586 85.9969 13.0716C86.6117 13.6551 87.4449 14.003 88.3434 14.0513C89.2414 14.0992 90.107 13.8424 90.7809 13.3283C91.4887 12.7882 91.9032 12.0321 91.9475 11.2003C92.0379 9.52737 90.5676 8.08257 88.669 7.97938C87.157 7.89903 85.8238 8.69395 85.2988 9.86617C85.1647 10.1655 85.0834 10.4894 85.0653 10.8295Z" fill="black"/>
<path d="M85.9078 16.7713C85.1088 18.5555 86.1124 20.7477 88.1451 21.658C90.1783 22.5686 92.4824 21.8579 93.2815 20.0738C94.0804 18.2898 93.0764 16.0977 91.0432 15.1871C89.0105 14.2767 86.7068 14.9874 85.9078 16.7713Z" fill="black"/>
<path d="M82.5014 21.9523L82.5014 21.9525C82.2874 22.1861 82.1184 22.4466 81.9936 22.7254C81.4108 24.0266 81.7899 25.7187 83.0286 26.8544C83.7416 27.5082 84.6357 27.8867 85.5459 27.9199C86.4988 27.9548 87.3552 27.6122 87.9576 26.955C88.5601 26.2977 88.8271 25.4147 88.7097 24.4685C88.5976 23.5646 88.143 22.7069 87.4299 22.0533C85.9256 20.6744 83.7147 20.6291 82.5014 21.9523Z" fill="black"/>
<path d="M79.8794 28.9588L79.8802 28.9586C81.3401 28.1353 81.7703 26.1187 80.8388 24.4629C79.9062 22.8077 77.9596 22.1294 76.4999 22.9506C75.9673 23.25 75.5715 23.7083 75.3289 24.2501C74.9059 25.1945 74.9479 26.3928 75.5401 27.4466C76.4728 29.1015 78.4193 29.78 79.8794 28.9588Z" fill="black"/>
</g>
<g opacity="0.3">
<path d="M174.018 71.7163C176.008 71.4176 177.687 70.1431 178.509 68.3068C179.332 66.4705 179.165 64.369 178.062 62.6856L175.406 58.6288C174.966 57.9558 174.333 57.4531 173.578 57.1753C172.823 56.8974 172.016 56.8706 171.244 57.0975C170.472 57.325 169.808 57.785 169.324 58.4277C168.839 59.0704 168.581 59.8357 168.575 60.6406L168.575 60.6946C168.546 62.7132 167.673 64.6438 166.175 65.9992C165.789 66.3489 165.485 66.7668 165.277 67.2323C165.163 67.4853 165.078 67.7528 165.023 68.0308C164.865 68.82 164.964 69.6217 165.309 70.3493C165.653 71.0764 166.211 71.661 166.921 72.0396C167.631 72.4183 168.427 72.5552 169.223 72.4359L174.018 71.7163Z" fill="black"/>
<path d="M178.848 60.9428C178.803 61.7756 179.134 62.5719 179.78 63.1849C180.395 63.7683 181.228 64.1163 182.127 64.1646C183.025 64.2125 183.89 63.9557 184.564 63.4416C185.272 62.9015 185.686 62.1454 185.731 61.3136C185.821 59.6407 184.351 58.1959 182.452 58.0927C180.94 58.0123 179.607 58.8072 179.082 59.9794C178.948 60.2788 178.867 60.6027 178.848 60.9428Z" fill="black"/>
<path d="M179.691 66.8846C178.892 68.6688 179.896 70.8609 181.928 71.7713C183.961 72.6819 186.266 71.9712 187.065 70.1871C187.864 68.4031 186.86 66.2109 184.826 65.3003C182.794 64.39 180.49 65.1007 179.691 66.8846Z" fill="black"/>
<path d="M176.284 72.0656L176.284 72.0658C176.07 72.2995 175.901 72.56 175.776 72.8388C175.193 74.1399 175.572 75.832 176.811 76.9677C177.524 77.6216 178.418 78 179.328 78.0332C180.281 78.0681 181.137 77.7255 181.74 77.0684C182.342 76.4111 182.609 75.528 182.492 74.5818C182.38 73.6779 181.925 72.8202 181.212 72.1667C179.708 70.7878 177.497 70.7424 176.284 72.0656Z" fill="black"/>
<path d="M173.663 79.0722L173.663 79.0719C175.123 78.2486 175.553 76.232 174.622 74.5762C173.689 72.921 171.743 72.2427 170.283 73.0639C169.75 73.3633 169.355 73.8216 169.112 74.3635C168.689 75.3078 168.731 76.5061 169.323 77.5599C170.256 79.2149 172.202 79.8933 173.663 79.0722Z" fill="black"/>
</g>
<g opacity="0.6">
<path d="M498.513 51.4576C499.657 49.8022 499.877 47.7057 499.101 45.8492C498.325 43.9928 496.679 42.6765 494.697 42.3281L489.921 41.4882C489.129 41.3489 488.33 41.4658 487.61 41.8262C486.891 42.1866 486.319 42.7567 485.956 43.4751C485.594 44.1935 485.475 44.9924 485.612 45.7855C485.749 46.5785 486.13 47.291 486.713 47.8459L486.752 47.883C488.204 49.2856 489.014 51.2432 488.977 53.2632C488.968 53.7842 489.065 54.2914 489.261 54.762C489.368 55.0178 489.505 55.2631 489.67 55.4938C490.138 56.1485 490.79 56.625 491.556 56.8719C492.322 57.1185 493.13 57.1122 493.892 56.8534C494.654 56.5947 495.298 56.1082 495.756 55.4463L498.513 51.4576Z" fill="black"/>
<path d="M493.962 40.5628C494.538 41.1658 495.345 41.4695 496.235 41.418C497.081 41.369 497.905 40.9997 498.555 40.3776C499.204 39.7556 499.609 38.9488 499.696 38.1055C499.786 37.2198 499.519 36.4002 498.943 35.7986C497.785 34.5877 495.725 34.6709 494.35 35.9846C493.257 37.0321 492.924 38.5481 493.42 39.7332C493.546 40.0358 493.727 40.3168 493.962 40.5628Z" fill="black"/>
<path d="M498.872 44.0144C499.626 45.818 501.911 46.5866 503.966 45.7276C506.021 44.8684 507.08 42.7019 506.326 40.8983C505.572 39.0948 503.287 38.3266 501.231 39.1858C499.176 40.0448 498.118 42.2109 498.872 44.0144Z" fill="black"/>
<path d="M500.319 50.0449L500.319 50.045C500.343 50.361 500.417 50.6624 500.535 50.9443C501.085 52.2596 502.578 53.1413 504.254 53.0154C505.218 52.9431 506.106 52.5502 506.753 51.9092C507.431 51.2384 507.767 50.3795 507.7 49.4905C507.634 48.6014 507.172 47.8024 506.402 47.2404C505.666 46.7035 504.73 46.4479 503.765 46.5206C501.73 46.6737 500.184 48.2547 500.319 50.0449Z" fill="black"/>
<path d="M503.633 56.7507L503.633 56.75C504.032 55.1221 502.856 53.4283 501.011 52.9742C499.166 52.5214 497.34 53.4765 496.939 55.1028C496.793 55.696 496.856 56.2982 497.085 56.846C497.485 57.8007 498.387 58.5902 499.561 58.8796C501.406 59.3322 503.232 58.3774 503.633 56.7507Z" fill="black"/>
</g>
<g opacity="0.2">
<path d="M13.7929 20.8306C16.0108 20.7389 18.0034 19.5401 19.123 17.6236C20.2425 15.7071 20.3081 13.3826 19.2987 11.4058L16.8664 6.64193C16.463 5.85159 15.8291 5.22537 15.034 4.83123C14.2387 4.43698 13.3567 4.31199 12.4829 4.46933C11.6095 4.62734 10.8268 5.05314 10.2194 5.70063C9.61206 6.34811 9.23751 7.15677 9.136 8.03883L9.12941 8.09802C8.85852 10.3085 7.67262 12.3224 5.86899 13.6314C5.40379 13.9691 5.02155 14.3915 4.73776 14.8773C4.58347 15.1414 4.45825 15.4246 4.36445 15.7229C4.09856 16.5698 4.11206 17.4607 4.4035 18.2995C4.69496 19.1378 5.23709 19.845 5.97117 20.3444C6.70525 20.8438 7.56188 21.0883 8.44884 21.0517L13.7929 20.8306Z" fill="black"/>
<path d="M20.3671 9.58756C20.2187 10.4955 20.4872 11.408 21.1232 12.1569C21.7283 12.8696 22.6009 13.3499 23.5805 13.5093C24.5597 13.6682 25.5394 13.4892 26.3395 13.0052C27.1797 12.4967 27.7239 11.7167 27.871 10.8096C28.1684 8.9856 26.7271 7.22686 24.6571 6.88872C23.0083 6.62146 21.452 7.33529 20.7373 8.55868C20.5549 8.87106 20.4273 9.21669 20.3671 9.58756Z" fill="black"/>
<path d="M20.59 16.2042C19.5024 18.066 20.3432 20.5888 22.4644 21.8279C24.5861 23.0674 27.197 22.561 28.2846 20.6992C29.3721 18.8376 28.5308 16.3147 26.4091 15.0753C24.2879 13.8362 21.6775 14.3426 20.59 16.2042Z" fill="black"/>
<path d="M16.2372 21.4822L16.2371 21.4824C15.9747 21.7133 15.7586 21.9789 15.5886 22.2699C14.7953 23.6278 15.0106 25.5286 16.2346 26.9209C16.939 27.7224 17.8747 28.2434 18.8691 28.3876C19.91 28.5388 20.8898 28.2646 21.6283 27.6152C22.367 26.9658 22.7644 26.029 22.7478 24.9773C22.7319 23.9727 22.335 22.9782 21.6303 22.1769C20.1439 20.4864 17.7246 20.1748 16.2372 21.4822Z" fill="black"/>
<path d="M12.5326 28.8559L12.5335 28.8557C14.2321 28.1257 14.9428 25.9651 14.1175 24.0388C13.2908 22.113 11.2363 21.1385 9.5381 21.8661C8.91853 22.1314 8.4302 22.5871 8.09987 23.1526C7.52414 24.1382 7.42818 25.4574 7.9528 26.6832C8.77959 28.6088 10.8339 29.5835 12.5326 28.8559Z" fill="black"/>
</g>
<g opacity="0.4">
<path d="M283.339 88.2817C284.479 86.6691 284.717 84.614 283.974 82.7841C283.232 80.9543 281.63 79.6455 279.689 79.2831L275.011 78.4093C274.235 78.2643 273.449 78.3708 272.74 78.717C272.03 79.0632 271.463 79.6168 271.099 80.3179C270.736 81.0192 270.611 81.802 270.737 82.5816C270.864 83.3613 271.23 84.0644 271.796 84.615L271.834 84.6518C273.245 86.0433 274.02 87.9728 273.962 89.9547C273.948 90.4659 274.038 90.9646 274.226 91.4285C274.328 91.6806 274.46 91.9227 274.619 92.1508C275.071 92.7982 275.706 93.2726 276.456 93.5228C277.205 93.7728 277.997 93.7749 278.748 93.5289C279.499 93.2829 280.136 92.8121 280.592 92.1673L283.339 88.2817Z" fill="black"/>
<path d="M278.989 77.5431C279.548 78.1408 280.337 78.4472 281.21 78.4059C282.041 78.3666 282.853 78.0127 283.497 77.409C284.141 76.8054 284.547 76.0178 284.641 75.1911C284.739 74.3229 284.485 73.5158 283.926 72.9195C282.802 71.7192 280.78 71.7795 279.417 73.0544C278.333 74.0709 277.991 75.5553 278.465 76.7233C278.586 77.0216 278.76 77.2992 278.989 77.5431Z" fill="black"/>
<path d="M283.771 80.9814C284.492 82.7592 286.727 83.5371 288.752 82.7154C290.778 81.8936 291.84 79.7786 291.118 78.0008C290.397 76.2232 288.162 75.4456 286.136 76.2674C284.111 77.0891 283.05 79.2038 283.771 80.9814Z" fill="black"/>
<path d="M285.126 86.914L285.126 86.9142C285.146 87.2245 285.216 87.5211 285.329 87.7989C285.855 89.0954 287.311 89.9761 288.957 89.8699C289.904 89.8089 290.779 89.4326 291.421 88.8103C292.093 88.159 292.432 87.3196 292.376 86.4466C292.319 85.5733 291.875 84.7845 291.125 84.225C290.408 83.6905 289.492 83.43 288.545 83.4913C286.546 83.6204 285.013 85.1559 285.126 86.914Z" fill="black"/>
<path d="M288.308 93.5292L288.308 93.5285C288.717 91.9351 287.58 90.2608 285.775 89.796C283.969 89.3325 282.166 90.2508 281.756 91.8426C281.607 92.4233 281.663 93.0149 281.882 93.5548C282.263 94.4958 283.141 95.2799 284.29 95.5761C286.095 96.0394 287.898 95.1213 288.308 93.5292Z" fill="black"/>
</g>
<path d="M650.804 223.158C652.263 224.488 654.274 224.977 656.181 224.466C658.088 223.955 659.585 222.526 660.184 220.645L661.627 216.11C661.867 215.358 661.858 214.565 661.602 213.819C661.346 213.072 660.866 212.44 660.215 211.993C659.564 211.546 658.803 211.326 658.014 211.355C657.224 211.384 656.481 211.661 655.865 212.155L655.824 212.189C654.269 213.417 652.259 213.948 650.299 213.647C649.794 213.569 649.288 213.597 648.804 213.726C648.541 213.797 648.285 213.898 648.039 214.027C647.341 214.397 646.792 214.968 646.451 215.681C646.111 216.394 646.011 217.18 646.162 217.955C646.314 218.73 646.703 219.421 647.286 219.953L650.804 223.158Z" fill="black"/>
<path d="M661.997 220.164C661.335 220.645 660.934 221.39 660.867 222.262C660.804 223.091 661.055 223.941 661.574 224.655C662.094 225.368 662.826 225.868 663.634 226.063C664.484 226.267 665.316 226.114 665.977 225.633C667.307 224.666 667.496 222.652 666.399 221.142C665.524 219.941 664.093 219.419 662.875 219.745C662.564 219.828 662.267 219.967 661.997 220.164Z" fill="black"/>
<path d="M657.997 224.486C656.143 224.982 655.096 227.104 655.662 229.215C656.228 231.327 658.196 232.641 660.049 232.145C661.902 231.648 662.949 229.526 662.383 227.414C661.817 225.303 659.849 223.989 657.997 224.486Z" fill="black"/>
<path d="M651.941 225.1L651.941 225.1C651.631 225.082 651.328 225.115 651.038 225.192C649.687 225.554 648.633 226.891 648.536 228.537C648.48 229.485 648.745 230.4 649.284 231.114C649.847 231.861 650.638 232.3 651.512 232.352C652.385 232.404 653.223 232.06 653.87 231.385C654.489 230.74 654.861 229.862 654.917 228.915C655.035 226.916 653.7 225.204 651.941 225.1Z" fill="black"/>
<path d="M644.984 227.444L644.985 227.444C646.516 228.046 648.317 227.125 649.001 225.39C649.684 223.655 648.995 221.753 647.465 221.15C646.908 220.93 646.314 220.913 645.751 221.063C644.77 221.326 643.884 222.1 643.448 223.204C642.766 224.939 643.455 226.841 644.984 227.444Z" fill="black"/>
<g opacity="0.5">
<path d="M361.306 91.2345C361.629 89.0384 360.823 86.8573 359.148 85.4003C357.474 83.9432 355.202 83.4457 353.072 84.0692L347.938 85.5712C347.087 85.8204 346.353 86.3265 345.818 87.0342C345.283 87.7421 344.995 88.5854 344.987 89.4732C344.98 90.3608 345.252 91.2091 345.775 91.9265C346.298 92.6438 347.023 93.1625 347.871 93.4266L347.928 93.4441C350.049 94.1221 351.807 95.6624 352.757 97.6784C353.002 98.1983 353.345 98.6526 353.77 99.0219C354.001 99.2227 354.256 99.3985 354.531 99.5462C355.314 99.9653 356.192 100.118 357.07 99.9879C357.948 99.8578 358.744 99.4569 359.371 98.8287C359.998 98.2005 360.398 97.4044 360.528 96.5262L361.306 91.2345Z" fill="black"/>
<path d="M351.484 82.6806C352.348 82.9955 353.295 82.9018 354.149 82.4165C354.962 81.9547 355.597 81.1869 355.936 80.2541C356.274 79.3217 356.281 78.3257 355.954 77.4495C355.611 76.5293 354.946 75.8493 354.083 75.5358C352.346 74.9037 350.35 75.9921 349.632 77.9629C349.062 79.5329 349.473 81.195 350.542 82.1251C350.815 82.3626 351.131 82.5523 351.484 82.6806Z" fill="black"/>
<path d="M358.026 83.695C359.653 85.1105 362.288 84.7544 363.901 82.9012C365.514 81.0476 365.503 78.3881 363.876 76.9726C362.25 75.5573 359.615 75.9138 358.001 77.7675C356.389 79.6206 356.4 82.2797 358.026 83.695Z" fill="black"/>
<path d="M362.4 88.9546L362.4 88.9547C362.578 89.2555 362.799 89.5174 363.053 89.7386C364.24 90.771 366.147 90.9136 367.743 89.9705C368.662 89.4277 369.348 88.6055 369.675 87.6554C370.018 86.6609 369.931 85.6471 369.43 84.8005C368.93 83.9538 368.084 83.3888 367.047 83.2092C366.057 83.0376 365.006 83.2423 364.088 83.7854C362.15 84.9307 361.393 87.2497 362.4 88.9546Z" fill="black"/>
<path d="M368.955 93.9679L368.955 93.967C368.554 92.1621 366.564 91.0613 364.517 91.5133C362.471 91.9667 361.131 93.8036 361.529 95.6077C361.674 96.2658 362.031 96.8305 362.525 97.2604C363.386 98.0097 364.665 98.3498 365.967 98.0627C368.013 97.6092 369.353 95.7724 368.955 93.9679Z" fill="black"/>
</g>
<g opacity="0.3">
<path d="M117.131 86.9611C119.048 85.8413 120.247 83.8489 120.339 81.6312C120.43 79.4136 119.4 77.329 117.582 76.0552L113.202 72.9852C112.475 72.4759 111.622 72.2195 110.735 72.2436C109.847 72.2677 109.01 72.5703 108.311 73.1186C107.614 73.6673 107.121 74.4101 106.888 75.2666C106.655 76.1231 106.702 77.013 107.026 77.8399L107.048 77.8953C107.844 79.9752 107.739 82.31 106.758 84.3113C106.506 84.8275 106.366 85.3798 106.342 85.9419C106.33 86.2475 106.352 86.5564 106.409 86.8638C106.57 87.7367 107 88.5175 107.65 89.1221C108.3 89.7263 109.11 90.0972 109.993 90.1947C110.875 90.2921 111.747 90.1069 112.513 89.6593L117.131 86.9611Z" fill="black"/>
<path d="M117.674 73.9487C117.968 74.8204 118.633 75.5009 119.545 75.8647C120.414 76.211 121.41 76.2268 122.35 75.9088C123.29 75.5906 124.071 74.9736 124.552 74.1713C125.056 73.3284 125.171 72.3844 124.876 71.5141C124.285 69.7632 122.188 68.8843 120.2 69.555C118.619 70.091 117.578 71.4506 117.519 72.8662C117.504 73.2277 117.553 73.5928 117.674 73.9487Z" fill="black"/>
<path d="M120.969 79.6906C120.88 81.8449 122.805 83.6802 125.259 83.7816C127.714 83.883 129.784 82.2128 129.873 80.0584C129.962 77.9043 128.037 76.0693 125.582 75.9678C123.127 75.8664 121.058 77.5365 120.969 79.6906Z" fill="black"/>
<path d="M119.595 86.3925L119.595 86.3927C119.472 86.7196 119.405 87.0556 119.391 87.3923C119.326 88.9636 120.407 90.5421 122.14 91.1991C123.138 91.5774 124.209 91.5994 125.155 91.2612C126.145 90.9073 126.882 90.2061 127.231 89.2865C127.579 88.3667 127.492 87.3529 126.985 86.4315C126.5 85.5513 125.684 84.8584 124.686 84.4805C122.581 83.683 120.297 84.5408 119.595 86.3925Z" fill="black"/>
<path d="M119.776 94.6423L119.777 94.6417C120.936 93.2012 120.552 90.9594 118.921 89.6439C117.288 88.3296 115.017 88.4307 113.857 89.8689C113.434 90.3935 113.216 91.0249 113.189 91.6792C113.142 92.8196 113.675 94.0302 114.712 94.8675C116.345 96.1816 118.616 96.0807 119.776 94.6423Z" fill="black"/>
</g>
<g opacity="0.6">
<path d="M414.296 31.6313C415.763 30.3221 416.454 28.3814 416.144 26.44C415.833 24.4985 414.572 22.87 412.77 22.0837L408.427 20.1887C407.706 19.8743 406.921 19.8017 406.155 19.9787C405.388 20.1557 404.714 20.5657 404.204 21.1645C403.695 21.7636 403.399 22.4951 403.347 23.2797C403.295 24.0644 403.493 24.8286 403.919 25.4896L403.947 25.5339C405.004 27.1997 405.324 29.2451 404.825 31.155C404.696 31.6477 404.672 32.1518 404.75 32.6439C404.793 32.9114 404.867 33.1757 404.97 33.4327C405.264 34.162 405.774 34.7645 406.445 35.175C407.115 35.5852 407.884 35.7648 408.667 35.6942C409.451 35.6236 410.175 35.3096 410.761 34.7861L414.296 31.6313Z" fill="black"/>
<path d="M412.477 20.2388C412.886 20.9439 413.582 21.4178 414.439 21.5731C415.254 21.7211 416.121 21.5596 416.881 21.1182C417.641 20.6767 418.211 20.0035 418.487 19.2225C418.777 18.4021 418.711 17.5622 418.302 16.8584C417.481 15.4423 415.505 15.0481 413.898 15.9799C412.619 16.7235 411.954 18.0869 412.152 19.3262C412.203 19.6427 412.31 19.951 412.477 20.2388Z" fill="black"/>
<path d="M416.349 24.645C416.651 26.5312 418.644 27.7863 420.793 27.4426C422.943 27.0989 424.446 25.2846 424.145 23.3983C423.843 21.5123 421.849 20.2574 419.699 20.6012C417.55 20.9448 416.047 22.7589 416.349 24.645Z" fill="black"/>
<path d="M416.335 30.7044L416.335 30.7046C416.285 31.0101 416.286 31.3135 416.333 31.6083C416.553 32.9839 417.769 34.1644 419.39 34.4298C420.322 34.5828 421.256 34.4137 422.018 33.9536C422.816 33.4722 423.332 32.7337 423.473 31.874C423.614 31.0142 423.359 30.1494 422.757 29.4387C422.182 28.7597 421.351 28.3018 420.418 28.1492C418.45 27.827 416.619 28.9732 416.335 30.7044Z" fill="black"/>
<path d="M417.943 37.8351L417.943 37.8345C418.696 36.38 417.969 34.5012 416.321 33.646C414.673 32.792 412.718 33.2793 411.964 34.7319C411.689 35.2617 411.611 35.8483 411.703 36.4211C411.862 37.4195 412.538 38.3767 413.586 38.9213C415.234 39.7751 417.189 39.288 417.943 37.8351Z" fill="black"/>
</g>
<g opacity="0.8">
<path d="M584.835 105.548C586.274 106.911 588.282 107.44 590.205 106.964C592.128 106.488 593.657 105.083 594.294 103.207L595.829 98.6856C596.084 97.9355 596.09 97.1401 595.848 96.3859C595.605 95.6315 595.136 94.9892 594.492 94.5279C593.847 94.0672 593.088 93.8312 592.295 93.8454C591.503 93.8596 590.752 94.1232 590.124 94.6071L590.082 94.6397C588.499 95.842 586.472 96.3363 584.512 95.9965C584.006 95.9089 583.498 95.9271 583.01 96.0478C582.745 96.1134 582.486 96.2095 582.237 96.3351C581.529 96.692 580.968 97.2551 580.612 97.9636C580.257 98.6719 580.142 99.459 580.279 100.24C580.416 101.02 580.793 101.721 581.368 102.266L584.835 105.548Z" fill="black"/>
<path d="M596.123 102.759C595.449 103.229 595.032 103.968 594.949 104.841C594.869 105.672 595.105 106.53 595.612 107.256C596.12 107.981 596.844 108.497 597.652 108.708C598.5 108.929 599.338 108.792 600.01 108.322C601.363 107.377 601.592 105.36 600.52 103.825C599.665 102.603 598.239 102.051 597.012 102.355C596.698 102.433 596.397 102.566 596.123 102.759Z" fill="black"/>
<path d="M592.026 107.017C590.157 107.48 589.065 109.588 589.592 111.718C590.12 113.847 592.069 115.203 593.938 114.741C595.806 114.278 596.897 112.169 596.37 110.04C595.843 107.911 593.894 106.555 592.026 107.017Z" fill="black"/>
<path d="M585.939 107.518L585.939 107.518C585.627 107.494 585.323 107.521 585.031 107.593C583.668 107.93 582.586 109.251 582.456 110.901C582.381 111.85 582.63 112.773 583.157 113.5C583.708 114.26 584.493 114.716 585.368 114.785C586.244 114.854 587.091 114.525 587.753 113.86C588.387 113.225 588.776 112.352 588.85 111.402C589.007 109.399 587.701 107.656 585.939 107.518Z" fill="black"/>
<path d="M578.915 109.736L578.915 109.736C580.44 110.369 582.265 109.479 582.984 107.752C583.702 106.025 583.047 104.103 581.525 103.469C580.969 103.238 580.374 103.209 579.806 103.349C578.817 103.594 577.913 104.354 577.455 105.452C576.737 107.18 577.392 109.101 578.915 109.736Z" fill="black"/>
</g>
<g opacity="0.5">
<path d="M433.752 100.119C434.459 98.1273 434.108 95.9416 432.813 94.272C431.518 92.6025 429.489 91.7188 427.384 91.9082L422.313 92.3641C421.471 92.4397 420.693 92.7771 420.063 93.3393C419.432 93.9016 419.008 94.6362 418.837 95.4638C418.666 96.2914 418.764 97.1339 419.12 97.9004C419.476 98.6668 420.057 99.2848 420.8 99.6878L420.85 99.7146C422.706 100.739 424.064 102.502 424.579 104.56C424.712 105.091 424.95 105.578 425.278 106.001C425.456 106.232 425.662 106.443 425.892 106.632C426.546 107.167 427.337 107.472 428.182 107.512C429.025 107.553 429.843 107.325 430.544 106.854C431.246 106.383 431.766 105.713 432.049 104.917L433.752 100.119Z" fill="black"/>
<path d="M426.157 90.3186C426.906 90.7722 427.807 90.8592 428.694 90.5635C429.539 90.2822 430.273 89.6822 430.762 88.8736C431.25 88.0652 431.44 87.1363 431.297 86.2578C431.146 85.3351 430.65 84.5774 429.902 84.1253C428.396 83.2147 426.331 83.8629 425.297 85.571C424.475 86.9322 424.553 88.5603 425.38 89.6261C425.591 89.8982 425.851 90.1337 426.157 90.3186Z" fill="black"/>
<path d="M432.08 92.4726C433.338 94.0945 435.865 94.248 437.713 92.8148C439.561 91.3812 440.041 88.8954 438.783 87.2735C437.525 85.6517 434.998 85.4986 433.15 86.9322C431.302 88.3654 430.822 90.8508 432.08 92.4726Z" fill="black"/>
<path d="M435.196 98.1914L435.196 98.1916C435.307 98.5054 435.465 98.7906 435.661 99.0441C436.579 100.227 438.334 100.712 439.998 100.126C440.957 99.7882 441.749 99.1469 442.23 98.3199C442.733 97.4543 442.839 96.4915 442.528 95.6086C442.216 94.7255 441.53 94.0418 440.595 93.6829C439.703 93.34 438.683 93.3373 437.725 93.6751C435.704 94.3873 434.57 96.4134 435.196 98.1914Z" fill="black"/>
<path d="M440.391 104.082L440.392 104.082C440.35 102.322 438.695 100.927 436.7 100.971C434.706 101.018 433.115 102.486 433.154 104.244C433.169 104.886 433.398 105.479 433.78 105.971C434.446 106.83 435.577 107.383 436.846 107.355C438.84 107.309 440.431 105.841 440.391 104.082Z" fill="black"/>
</g>
<g opacity="0.7">
<path d="M563.111 58.178C564.867 57.4105 566.097 55.8223 566.399 53.9293C566.701 52.0363 566.026 50.1445 564.596 48.8688L561.148 45.7943C560.576 45.2842 559.87 44.9783 559.106 44.9097C558.343 44.841 557.594 45.0162 556.939 45.4162C556.286 45.8165 555.789 46.4041 555.502 47.1153C555.216 47.8265 555.167 48.5946 555.361 49.3364L555.374 49.3862C555.848 51.2504 555.523 53.2426 554.48 54.8604C554.211 55.2777 554.036 55.7373 553.959 56.2171C553.918 56.478 553.905 56.7452 553.923 57.0146C553.974 57.7796 554.263 58.4926 554.76 59.0767C555.257 59.6604 555.915 60.0602 556.662 60.2326C557.409 60.4051 558.175 60.334 558.878 60.0272L563.111 58.178Z" fill="black"/>
<path d="M564.885 47.0712C565.05 47.8485 565.551 48.4991 566.298 48.9031C567.008 49.2877 567.86 49.4015 568.699 49.2234C569.537 49.0451 570.27 48.5946 570.762 47.9548C571.28 47.2826 571.474 46.4845 571.309 45.7083C570.978 44.1469 569.267 43.1817 567.495 43.5569C566.084 43.8573 565.054 44.9187 564.862 46.1271C564.812 46.4357 564.818 46.7538 564.885 47.0712Z" fill="black"/>
<path d="M567.133 52.3285C566.839 54.1677 568.305 55.9359 570.401 56.2701C572.497 56.6044 574.44 55.3801 574.734 53.541C575.027 51.702 573.561 49.9339 571.465 49.5996C569.369 49.2653 567.426 50.4895 567.133 52.3285Z" fill="black"/>
<path d="M565.282 57.9384L565.282 57.9386C565.143 58.2066 565.052 58.488 565.006 58.7754C564.792 60.1167 565.56 61.5795 566.98 62.3176C567.798 62.7426 568.714 62.8694 569.56 62.6745C570.445 62.4707 571.148 61.9435 571.54 61.1898C571.931 60.436 571.958 59.5575 571.616 58.7161C571.289 57.9123 570.658 57.2358 569.841 56.8111C568.115 55.915 566.07 56.4208 565.282 57.9384Z" fill="black"/>
<path d="M564.603 65.033L564.604 65.0326C565.743 63.9137 565.64 61.9521 564.373 60.6594C563.105 59.3677 561.146 59.2256 560.007 60.3425C559.591 60.7498 559.34 61.2694 559.251 61.8279C559.096 62.8014 559.431 63.8934 560.237 64.7162C561.505 66.0078 563.463 66.15 564.603 65.033Z" fill="black"/>
</g>
<g opacity="0.9">
<path d="M637.336 139.932C638.846 141.005 640.774 141.232 642.492 140.539C644.21 139.846 645.442 138.346 645.786 136.525L646.615 132.139C646.753 131.411 646.654 130.674 646.331 130.007C646.008 129.341 645.489 128.807 644.832 128.465C644.175 128.123 643.441 128.004 642.709 128.121C641.978 128.238 641.317 128.58 640.799 129.11L640.765 129.146C639.456 130.466 637.645 131.189 635.785 131.131C635.306 131.116 634.838 131.2 634.402 131.375C634.165 131.471 633.938 131.594 633.724 131.743C633.115 132.166 632.669 132.761 632.433 133.463C632.197 134.165 632.193 134.909 632.422 135.614C632.652 136.318 633.092 136.918 633.696 137.347L637.336 139.932Z" fill="black"/>
<path d="M647.422 135.872C646.86 136.395 646.571 137.134 646.608 137.954C646.643 138.733 646.973 139.496 647.538 140.102C648.103 140.707 648.841 141.09 649.617 141.179C650.431 141.273 651.189 141.036 651.749 140.513C652.878 139.461 652.825 137.564 651.632 136.283C650.68 135.264 649.289 134.94 648.192 135.382C647.912 135.495 647.651 135.658 647.422 135.872Z" fill="black"/>
<path d="M644.186 140.351C642.516 141.024 641.782 143.119 642.549 145.021C643.315 146.923 645.298 147.924 646.967 147.251C648.636 146.578 649.37 144.483 648.603 142.58C647.837 140.678 645.855 139.678 644.186 140.351Z" fill="black"/>
<path d="M638.618 141.611L638.618 141.611C638.326 141.63 638.048 141.694 637.787 141.8C636.57 142.29 635.74 143.655 635.837 145.199C635.892 146.088 636.243 146.91 636.826 147.513C637.435 148.145 638.222 148.465 639.041 148.414C639.861 148.363 640.602 147.947 641.128 147.245C641.631 146.574 641.878 145.715 641.822 144.826C641.705 142.95 640.267 141.508 638.618 141.611Z" fill="black"/>
<path d="M632.405 144.584L632.405 144.585C633.899 144.971 635.473 143.908 635.912 142.215C636.351 140.522 635.493 138.829 634 138.441C633.456 138.3 632.901 138.351 632.394 138.555C631.51 138.911 630.773 139.733 630.493 140.81C630.054 142.503 630.912 144.196 632.405 144.584Z" fill="black"/>
</g>
<path d="M592.234 202.215C593.745 203.288 595.672 203.515 597.391 202.823C599.109 202.13 600.34 200.63 600.684 198.809L601.513 194.422C601.651 193.694 601.553 192.957 601.229 192.291C600.906 191.624 600.388 191.091 599.731 190.748C599.074 190.406 598.339 190.287 597.608 190.404C596.876 190.521 596.216 190.863 595.698 191.394L595.663 191.429C594.355 192.75 592.543 193.473 590.684 193.415C590.204 193.4 589.736 193.483 589.301 193.659C589.064 193.754 588.836 193.877 588.622 194.026C588.014 194.449 587.567 195.044 587.331 195.747C587.095 196.449 587.092 197.193 587.321 197.897C587.55 198.602 587.99 199.201 588.594 199.63L592.234 202.215Z" fill="black"/>
<path d="M602.32 198.155C601.758 198.679 601.469 199.418 601.506 200.237C601.541 201.017 601.872 201.78 602.437 202.386C603.002 202.991 603.74 203.373 604.515 203.463C605.329 203.557 606.087 203.32 606.648 202.796C607.776 201.745 607.724 199.848 606.53 198.566C605.579 197.548 604.187 197.223 603.09 197.665C602.81 197.778 602.549 197.941 602.32 198.155Z" fill="black"/>
<path d="M599.084 202.635C597.415 203.308 596.68 205.403 597.447 207.305C598.214 209.207 600.196 210.207 601.865 209.534C603.535 208.861 604.269 206.766 603.502 204.864C602.735 202.962 600.753 201.962 599.084 202.635Z" fill="black"/>
<path d="M593.516 203.895L593.516 203.895C593.225 203.913 592.946 203.978 592.686 204.083C591.468 204.574 590.639 205.938 590.735 207.483C590.79 208.372 591.142 209.194 591.724 209.797C592.334 210.429 593.121 210.748 593.94 210.697C594.759 210.646 595.5 210.231 596.027 209.528C596.53 208.857 596.776 207.998 596.72 207.109C596.603 205.234 595.166 203.792 593.516 203.895Z" fill="black"/>
<path d="M587.303 206.868L587.304 206.868C588.798 207.255 590.371 206.192 590.811 204.499C591.249 202.805 590.391 201.112 588.899 200.725C588.354 200.583 587.799 200.634 587.292 200.839C586.409 201.195 585.671 202.017 585.391 203.094C584.953 204.787 585.81 206.48 587.303 206.868Z" fill="black"/>
</g>
<path d="M509.212 133.191L509.212 133.191C512.557 133.848 515.3 136.131 516.552 139.301C517.805 142.471 517.362 146.012 515.369 148.777L515.774 149.07L515.369 148.777L510.326 155.773C509.551 156.847 508.477 157.625 507.215 158.026C505.953 158.427 504.626 158.411 503.375 157.981C502.122 157.55 501.067 156.746 500.319 155.654C500.055 155.268 499.838 154.86 499.671 154.437C499.363 153.658 499.22 152.822 499.253 151.964C499.395 148.235 497.97 144.59 495.339 141.947L495.339 141.947L495.335 141.943L495.268 141.877C495.268 141.877 495.268 141.876 495.268 141.876C494.327 140.944 493.725 139.762 493.525 138.454C493.325 137.145 493.547 135.837 494.166 134.667C494.787 133.497 495.744 132.579 496.94 132.01L496.724 131.559L496.94 132.01C498.134 131.441 499.451 131.275 500.749 131.53L500.749 131.53L509.212 133.191Z" fill="#78C0DE" stroke="black"/>
<path d="M508.435 129.196L508.436 129.196C509.332 130.172 510.611 130.69 512.059 130.635L512.059 130.635C513.439 130.583 514.805 130.006 515.901 128.998C516.997 127.99 517.685 126.677 517.853 125.306L508.435 129.196ZM508.435 129.196C508.068 128.796 507.789 128.343 507.597 127.856C506.842 125.946 507.41 123.476 509.257 121.775C511.589 119.633 514.932 119.628 516.723 121.576L516.723 121.577M508.435 129.196L516.723 121.577M516.723 121.577C517.619 122.551 518.028 123.868 517.853 125.306L516.723 121.577Z" fill="#78C0DE" stroke="black"/>
<path d="M525.491 138.604C522.004 139.981 518.296 138.582 517.142 135.66C515.988 132.739 517.739 129.183 521.225 127.806C524.713 126.429 528.422 127.828 529.576 130.749C530.73 133.67 528.978 137.227 525.491 138.604Z" fill="#78C0DE" stroke="black"/>
<path d="M531.681 145.921C531.76 147.347 531.197 148.723 530.066 149.799L530.066 149.799C528.985 150.829 527.507 151.452 525.9 151.541L525.9 151.541C523.102 151.696 520.695 150.175 519.853 148.043C519.673 147.587 519.563 147.101 519.535 146.592L519.533 146.564C519.394 143.721 521.917 141.162 525.315 140.974L525.315 140.974C526.922 140.885 528.46 141.341 529.648 142.245L529.648 142.245C530.891 143.19 531.602 144.496 531.681 145.921ZM531.681 145.921L532.18 145.894M531.681 145.921L532.18 145.894M532.18 145.894C532.268 147.477 531.64 148.992 530.411 150.161L532.18 145.894ZM529.951 141.848L529.95 141.848L529.951 141.848Z" fill="#78C0DE" stroke="black"/>
<path d="M524.219 158.497C524.874 155.947 523.077 153.151 520.035 152.338L524.219 158.497ZM524.219 158.497L524.219 158.497L524.21 158.533C523.526 161.089 520.562 162.635 517.506 161.821L524.219 158.497ZM513.332 155.625L513.332 155.625C513.081 156.564 513.16 157.527 513.512 158.417C514.127 159.973 515.573 161.303 517.505 161.821L513.332 155.625ZM513.332 155.625C514.015 153.07 516.978 151.523 520.035 152.338L513.332 155.625Z" fill="#78C0DE" stroke="black"/>
<path d="M447.819 194.404L448.289 193.932L459.676 205.317L459.399 205.592L456.379 208.607C454.445 210.546 450.327 209.566 447.181 206.424C444.037 203.276 443.058 199.16 444.993 197.226L447.814 194.404H447.819V194.404Z" fill="#5A6E7F"/>
<path d="M451.076 191.194L462.462 202.572L459.676 205.317L448.289 193.932L448.615 193.606L448.624 193.612L451.076 191.194Z" fill="#78C0DE"/>
<path d="M511.636 97C536.138 97 556 116.867 556 141.371C556 165.874 536.138 185.737 511.636 185.737C502.552 185.737 494.119 183.003 487.083 178.319L462.462 202.572L451.076 191.194L475.536 167.102C470.349 159.842 467.265 150.973 467.265 141.371C467.265 116.867 487.127 97 511.636 97ZM511.029 172.567C528.256 172.567 542.226 158.602 542.226 141.371C542.226 124.139 528.256 110.174 511.029 110.174C493.798 110.174 479.831 124.139 479.831 141.371C479.831 158.602 493.798 172.567 511.029 172.567Z" fill="#333333"/>
</svg>
