<svg width="77" height="77" fill="none" xmlns="http://www.w3.org/2000/svg"><path d="M66.849 73.39H10.15a9.024 9.024 0 0 1-9.023-9.023v-42.11a9.024 9.024 0 0 1 9.023-9.023h56.7a9.024 9.024 0 0 1 9.023 9.024v42.11a9.024 9.024 0 0 1-9.023 9.023Z" fill="#FF573D"/><path d="M66.849 13.234h-4.512a9.024 9.024 0 0 1 9.023 9.024v42.11a9.024 9.024 0 0 1-9.023 9.023h4.512a9.024 9.024 0 0 0 9.023-9.024v-42.11a9.024 9.024 0 0 0-9.023-9.023Z" fill="#E64028"/><path d="M52.787 50.633c0 7.891-6.396 14.288-14.287 14.288-7.89 0-14.287-6.397-14.287-14.288 0-7.89 6.396-14.287 14.287-14.287 7.89 0 14.287 6.397 14.287 14.287Z" fill="#FFD659"/><path d="M38.5 36.346c-.768 0-1.52.062-2.256.178 6.819 1.082 12.031 6.986 12.031 14.11 0 7.122-5.212 13.027-12.03 14.109.734.116 1.487.178 2.255.178 7.89 0 14.287-6.397 14.287-14.288 0-7.89-6.396-14.287-14.287-14.287Z" fill="#FFBD54"/><path d="M28.725 34.29a4.511 4.511 0 1 1-9.023 0 4.511 4.511 0 0 1 9.023 0Zm28.574 0a4.511 4.511 0 1 1-9.023 0 4.511 4.511 0 0 1 9.023 0Zm-14.287-5.415a4.511 4.511 0 1 1-9.023 0 4.511 4.511 0 0 1 9.023 0Z" fill="#FFD659"/><path d="M24.213 29.777a4.49 4.49 0 0 0-2.256.605 4.509 4.509 0 0 1 0 7.814 4.511 4.511 0 1 0 2.256-8.418Zm28.574 0a4.49 4.49 0 0 0-2.256.605 4.509 4.509 0 0 1 0 7.814 4.511 4.511 0 1 0 2.256-8.418ZM38.5 24.363a4.49 4.49 0 0 0-2.256.605 4.508 4.508 0 0 1 0 7.814 4.511 4.511 0 1 0 2.256-8.418Z" fill="#FFBD54"/><path d="M46.02 50.531c0 .623-.253 1.187-.662 1.595a2.244 2.244 0 0 1-1.594.661h-3.008v3.008a2.257 2.257 0 0 1-4.512 0v-3.008h-3.008a2.256 2.256 0 0 1 0-4.512h3.008v-3.007a2.257 2.257 0 0 1 4.512 0v3.007h3.008a2.256 2.256 0 0 1 2.255 2.256Z" fill="#89CEEA"/><path d="M56.697 10.184v8.239a2.256 2.256 0 1 1-4.512 0v-8.239a4.545 4.545 0 0 0-4.544-4.544H29.359a4.545 4.545 0 0 0-4.545 4.544v8.239a2.256 2.256 0 1 1-4.511 0v-8.239a9.056 9.056 0 0 1 9.056-9.056h18.282a9.056 9.056 0 0 1 9.056 9.056Z" fill="#E8E1D5"/><path d="M47.64 1.128h-4.51c4.922 0 8.925 3.93 9.05 8.822.004.078.005.156.005.234v8.239a2.256 2.256 0 1 0 4.512 0v-8.239a9.056 9.056 0 0 0-9.056-9.056Z" fill="#D6CFC4"/><path d="M14.137 71.36h9.023v4.512h-9.023V71.36Zm39.703 0h9.023v4.512H53.84V71.36Z" fill="#E8E1D5"/><path d="M18.648 71.36h4.512v4.512h-4.512V71.36Zm39.704 0h4.511v4.512h-4.511V71.36Z" fill="#D6CFC4"/><path d="M66.849 12.106h-3.083a1.128 1.128 0 0 0 0 2.256h3.083c4.353 0 7.895 3.542 7.895 7.896v42.11c0 4.353-3.542 7.895-7.895 7.895H63.99v-.903c0-.622-.505-1.128-1.128-1.128H53.84c-.623 0-1.128.506-1.128 1.128v.903H24.288v-.903c0-.622-.505-1.128-1.128-1.128h-9.023c-.623 0-1.128.506-1.128 1.128v.903H10.15c-4.353 0-7.895-3.542-7.895-7.896v-35.53a1.128 1.128 0 0 0-2.256 0v35.53C0 69.964 4.554 74.52 10.151 74.52h2.858v1.353c0 .623.505 1.128 1.128 1.128h9.023c.623 0 1.128-.505 1.128-1.128V74.52h28.424v1.353c0 .623.505 1.128 1.128 1.128h9.023c.623 0 1.128-.505 1.128-1.128V74.52h2.858C72.446 74.519 77 69.964 77 64.367v-42.11c0-5.597-4.554-10.15-10.151-10.15ZM22.032 74.744h-6.767v-2.256h6.767v2.256Zm39.703 0h-6.767v-2.256h6.767v2.256Z" fill="#000"/><path d="M1.128 25.153c.623 0 1.128-.505 1.128-1.128v-1.767c0-4.354 3.542-7.896 7.895-7.896h9.024v4.06a3.388 3.388 0 0 0 3.384 3.385 3.388 3.388 0 0 0 3.383-3.384v-4.06h25.116v4.06a3.388 3.388 0 0 0 3.383 3.384 3.388 3.388 0 0 0 3.384-3.384v-4.06h1.128a1.128 1.128 0 0 0 0-2.257h-1.128v-1.922C57.825 4.57 53.256 0 47.641 0H29.359c-5.616 0-10.184 4.569-10.184 10.184v1.922H10.15C4.554 12.106 0 16.66 0 22.258v1.767c0 .623.505 1.128 1.128 1.128Zm24.814-13.047v-1.922a3.42 3.42 0 0 1 3.417-3.416h18.282a3.42 3.42 0 0 1 3.417 3.416v1.922H25.942Zm-4.511-1.922c0-4.372 3.556-7.928 7.928-7.928h18.282c4.372 0 7.928 3.556 7.928 7.928v8.239a1.129 1.129 0 0 1-2.256 0v-8.239a5.68 5.68 0 0 0-5.672-5.672H29.359a5.68 5.68 0 0 0-5.673 5.672v8.239a1.129 1.129 0 0 1-2.255 0v-8.239Zm7.254 50.893a1.128 1.128 0 0 0 .174 1.585A15.456 15.456 0 0 0 38.5 66.05c8.5 0 15.415-6.916 15.415-15.416S47 35.218 38.5 35.218s-15.415 6.915-15.415 15.415c0 2.906.813 5.736 2.351 8.186a1.128 1.128 0 1 0 1.91-1.2 13.116 13.116 0 0 1-2.005-6.986c0-7.256 5.903-13.159 13.159-13.159 7.256 0 13.16 5.903 13.16 13.16 0 7.255-5.904 13.159-13.16 13.159-3.028 0-5.873-1-8.23-2.89a1.128 1.128 0 0 0-1.585.174Z" fill="#000"/><path d="M29.852 34.29c0-3.111-2.53-5.64-5.64-5.64s-5.639 2.529-5.639 5.64c0 3.11 2.53 5.639 5.64 5.639s5.64-2.53 5.64-5.64Zm-5.64 3.383a3.388 3.388 0 0 1-3.383-3.384 3.388 3.388 0 0 1 3.384-3.384 3.388 3.388 0 0 1 3.384 3.384 3.388 3.388 0 0 1-3.384 3.384Zm34.215-3.383c0-3.111-2.53-5.64-5.64-5.64s-5.64 2.529-5.64 5.64c0 3.11 2.53 5.639 5.64 5.639s5.64-2.53 5.64-5.64Zm-5.64 3.383a3.388 3.388 0 0 1-3.384-3.384 3.388 3.388 0 0 1 3.384-3.384 3.388 3.388 0 0 1 3.384 3.384 3.388 3.388 0 0 1-3.384 3.384Zm-8.647-8.798c0-3.11-2.53-5.64-5.64-5.64s-5.64 2.53-5.64 5.64 2.53 5.64 5.64 5.64 5.64-2.53 5.64-5.64Zm-9.024 0a3.388 3.388 0 0 1 3.384-3.384 3.388 3.388 0 0 1 3.384 3.384 3.388 3.388 0 0 1-3.384 3.384 3.388 3.388 0 0 1-3.384-3.384Zm5.777 14.002a3.358 3.358 0 0 0-2.393-.993 3.388 3.388 0 0 0-3.384 3.384v1.88h-1.88a3.388 3.388 0 0 0-3.383 3.383 3.388 3.388 0 0 0 3.383 3.384h1.88v1.88a3.388 3.388 0 0 0 3.384 3.384 3.388 3.388 0 0 0 3.384-3.384v-1.88h1.88c.904 0 1.754-.353 2.39-.99.64-.639.993-1.49.993-2.394a3.388 3.388 0 0 0-3.383-3.383h-1.88v-1.88c0-.905-.353-1.755-.99-2.39Zm2.87 6.526a1.13 1.13 0 0 1 1.129 1.128c0 .301-.117.584-.334.798a1.11 1.11 0 0 1-.794.33h-3.008c-.623 0-1.128.505-1.128 1.128v3.008a1.129 1.129 0 0 1-2.256 0v-3.008c0-.623-.505-1.128-1.128-1.128h-3.008a1.129 1.129 0 0 1 0-2.256h3.008c.623 0 1.128-.505 1.128-1.128v-3.007a1.129 1.129 0 0 1 2.256 0v3.007c0 .623.505 1.128 1.128 1.128h3.008ZM8.196 19.1a1.128 1.128 0 1 1-2.256-.001 1.128 1.128 0 0 1 2.256 0Zm62.262 0a1.128 1.128 0 1 1-2.256-.001 1.128 1.128 0 0 1 2.256 0ZM8.196 67.676a1.128 1.128 0 1 1-2.256 0 1.128 1.128 0 0 1 2.256 0Zm62.262 0a1.128 1.128 0 1 1-2.256 0 1.128 1.128 0 0 1 2.256 0Z" fill="#000"/></svg>