<svg width="21" height="21" viewBox="0 0 21 21" fill="none" xmlns="http://www.w3.org/2000/svg">
<path d="M10.5 0C4.70156 0 0 4.70156 0 10.5C0 16.2984 4.70156 21 10.5 21C16.2984 21 21 16.2984 21 10.5C21 4.70156 16.2984 0 10.5 0ZM10.5 19.2188C5.68594 19.2188 1.78125 15.3141 1.78125 10.5C1.78125 5.68594 5.68594 1.78125 10.5 1.78125C15.3141 1.78125 19.2188 5.68594 19.2188 10.5C19.2188 15.3141 15.3141 19.2188 10.5 19.2188Z" fill="#FFBD54"/>
<path d="M14.5945 13.4672L11.2523 11.0508V5.25C11.2523 5.14687 11.168 5.0625 11.0648 5.0625H9.9375C9.83437 5.0625 9.75 5.14687 9.75 5.25V11.7047C9.75 11.7656 9.77812 11.8219 9.82734 11.857L13.7039 14.6836C13.7883 14.7445 13.9055 14.7258 13.9664 14.6437L14.6367 13.7297C14.6977 13.643 14.6789 13.5258 14.5945 13.4672Z" fill="#FFBD54"/>
</svg>
