<svg width="78" height="77" fill="none" xmlns="http://www.w3.org/2000/svg"><path d="M76.217 1.283v44.354l-1.283 2.02 1.283 2.724v9.958l-1.283 1.832 1.283 1.48v12.066h-30.8l-2.668-.963-2.465.963h-38.5V1.283h74.433Z" fill="#3775A4"/><path d="m76.217 45.637-.802 2.206.802 2.537v9.96l-.963 1.629.963 1.682v6.932l-4.867 2.888a18.378 18.378 0 0 1-8.806 2.246H45.417l-2.743-.802-2.39.802h-2.567l-2.825-4.239a13.738 13.738 0 0 1-2.309-7.62v-3.22a12.24 12.24 0 0 0-1.291-5.47l-1.275-2.551-2.567-8.984L23.6 38.5l-6.417 2.567h-4.491a1.925 1.925 0 0 1 0-3.85h1.925l7.7-3.85V30.8h-15.4v-5.526a2.567 2.567 0 0 1 2.144-2.532l5.556-.925 2.566-2.567 7.7-2.567-.317-.954a8.323 8.323 0 0 1 .168-5.73l1.433-3.582L36.433 23.1l3.948 4.936A28.37 28.37 0 0 0 56.59 38.052l3.943.846a19 19 0 0 0 8.253-.066l7.43-1.715v8.52Z" fill="#2A597C"/><path d="m39 44.917-5.25-5.25 2.59-2.543 5.283 5.282-2.513 2.566-.11-.055Z" fill="#DBDBDB"/><path d="m39 44.917 6.417 5.133 2.566-3.85-6.416-3.85L39 44.917Z" fill="#EBEBEB"/><path d="M76.217 45.637v4.743c-7.643 1.386-16.486 1.577-24.074.567l-6.726-.897 2.566-3.85.932.143c8.661 1.333 18.644 1.089 27.302-.706Z" fill="#EBEBEB"/><path d="M45.79 41.148a33.57 33.57 0 0 0-5.3 13.872l-.207 1.447h3.85l.337-.843a40.517 40.517 0 0 1 5.98-10.262l.341-.426a3.066 3.066 0 0 0 .515-2.885l-.058-.172a3.065 3.065 0 0 0-5.458-.73ZM76.217 60.34v3.31a14.082 14.082 0 0 1-10.355 5.939 37.026 37.026 0 0 1-21.066-4.51 1.283 1.283 0 0 1 1.242-2.245 34.72 34.72 0 0 0 5.768 2.536 11.613 11.613 0 0 0 .857-5.68l-.374-3.735a13.943 13.943 0 0 1 2.265-9.093l2.628-3.94a1.286 1.286 0 0 1 1.78-.357 1.285 1.285 0 0 1 .356 1.78l-2.629 3.942a11.369 11.369 0 0 0-1.846 7.413l.373 3.734a14.156 14.156 0 0 1-.936 6.663 34.49 34.49 0 0 0 4.238.794 11.673 11.673 0 0 0 .89-7.017l-.682-3.69a13.935 13.935 0 0 1 1.502-9.25l2.292-4.146a1.284 1.284 0 0 1 2.246 1.242l-2.29 4.146a11.363 11.363 0 0 0-1.226 7.541l.683 3.69a14.269 14.269 0 0 1-.723 7.71 34.79 34.79 0 0 0 4.438-.087c.22-.018.438-.043.657-.074.807-2.347.846-4.89.11-7.262l-1.118-3.584a13.928 13.928 0 0 1 .388-9.361l1.78-4.391a1.284 1.284 0 1 1 2.38.966l-1.78 4.389a11.37 11.37 0 0 0-.318 7.634l1.118 3.582c.727 2.34.839 4.829.324 7.225a11.284 11.284 0 0 0 3.598-2.413c.586-2.077.554-4.28-.091-6.34l-1.085-3.467a13.463 13.463 0 0 1 .393-9.1l1.216-2.97a1.282 1.282 0 1 1 2.376.972l-1.216 2.971a10.882 10.882 0 0 0-.32 7.36l1.085 3.47c.375 1.199.583 2.443.62 3.699.149-.026.302-.025.452.003Z" fill="#DBDBDB"/><path d="M35.15 1.283h2.567V7.7H35.15V1.283Zm-17.967 0h2.567v7.7h-2.567v-7.7Zm25.667 0h2.567v3.85H42.85v-3.85Zm7.7 0h2.567V7.7H50.55V1.283Zm7.7 0h2.567v3.85H58.25v-3.85Zm8.983 0H69.8V7.7h-2.567V1.283Zm-38.5 70.584H31.3v3.728h-2.567v-3.728Zm-7.7-2.567H23.6v6.295h-2.567V69.3Zm-7.7 2.567H15.9v3.728h-2.567v-3.728Zm-11.428-7.7h3.728v2.566H1.905v-2.566Zm0-7.7H8.2v2.566H1.905v-2.566Zm0-7.7h3.728v2.566H1.905v-2.566Zm0-39.784h3.728v2.567H1.905V8.983Zm7.578-7.7h2.567v3.85H9.483v-3.85ZM51.833 15.4H54.4v2.567h-2.567V15.4Zm5.134 0h10.266v2.567H56.967V15.4Zm-5.134 5.133H62.1V23.1H51.833v-2.567Zm12.834 0h2.566V23.1h-2.566v-2.567Z" fill="#2F638B"/><path d="m40.283 56.467-2.566 2.566 2.566 3.85v12.834h5.134V62.883l1.283-3.85-2.567-2.566h-3.85Zm-3.85-19.25-2.566 2.566-5.134-3.85-2.566-5.133 3.967-3.032 1.689 2.533 4.61 6.916Z" fill="#EBEBEB"/><path d="M31.823 30.301a4.01 4.01 0 0 1-3.334 1.782h-1.68l-.642-1.283 3.967-3.032 1.689 2.533Z" fill="#DADADA"/><path d="M28.41 21.817h-5.25a5.135 5.135 0 0 0-3.63 1.503l-2.347 2.347-5.677.81A3.85 3.85 0 0 0 8.2 30.29v.511h19.969a4.01 4.01 0 0 0 3.89-3.038l.241-.962a4.01 4.01 0 0 0-3.89-4.983Z" fill="#EBEBEB"/><path d="M12.692 37.217h1.925l7.7-3.85v-.642a3.208 3.208 0 1 1 6.416 0v3.69l-11.55 4.652h-4.491a1.925 1.925 0 1 1 0-3.85Z" fill="#DBDBDB"/><path d="M76.217 0H1.783A1.283 1.283 0 0 0 .5 1.283v74.434A1.283 1.283 0 0 0 1.783 77h74.434a1.283 1.283 0 0 0 1.283-1.283V1.283A1.283 1.283 0 0 0 76.217 0ZM39.074 55.862l-2.265 2.264a1.283 1.283 0 0 0-.16 1.62L39 63.271v11.161h-.597l-2.444-3.667a12.418 12.418 0 0 1-2.092-6.91v-3.218a13.582 13.582 0 0 0-1.427-6.044l-1.222-2.444-2.535-8.869a1.28 1.28 0 0 0-.207-.417l-3.044-4.059 3.133-1.392 4.458 3.343 5.07 5.07.002.001c.009.01.02.018.029.027a.842.842 0 0 0 .071.063l.003.003 2.698 2.157a34.84 34.84 0 0 0-1.676 6.762l-.146 1.023ZM29.97 32.083h.713l4.03 5.038-.967.968-3.73-2.797v-2.567c0-.215-.015-.43-.046-.642Zm1.084-5.595-.24.962a2.723 2.723 0 0 1-2.19 2.028 4.481 4.481 0 0 0-6.239.038H9.604a2.582 2.582 0 0 1 2.084-1.768l5.677-.811c.275-.04.53-.167.726-.363l2.347-2.347a3.875 3.875 0 0 1 2.72-1.127h5.251a2.724 2.724 0 0 1 2.645 3.388Zm-8.163 8.026a1.283 1.283 0 0 0 .709-1.147v-.642a1.925 1.925 0 0 1 3.85 0v2.374l-10.54 4.684h-4.218a.642.642 0 0 1 0-1.283h1.925c.199 0 .395-.046.574-.136l7.7-3.85Zm12.79 5.27.752-.752 3.319 3.318-.752.752-3.318-3.319ZM44.2 62.477c-.044.13-.067.267-.067.405v11.55h-2.566v-11.55c0-.253-.075-.5-.216-.712l-1.983-2.974 1.447-1.447h2.787l1.63 1.63-1.032 3.097Zm-.92-7.33-.015.035h-1.502a32.48 32.48 0 0 1 5.095-13.323 1.782 1.782 0 0 1 3.174.425l.057.172a1.776 1.776 0 0 1-.3 1.677l-.34.426a41.768 41.768 0 0 0-6.17 10.588ZM40.92 44.81l.844-.844.692.415c-.196.398-.385.8-.566 1.205l-.97-.776Zm9.275 3.013c1.184.158 2.378.286 3.57.387-.26.506-.49 1.028-.685 1.562-.254-.03-.51-.063-.768-.097l-3.099-.414c.317-.486.645-.966.983-1.438ZM45.662 56.1a39.268 39.268 0 0 1 2.11-4.442l4.203.561.44.057a13.876 13.876 0 0 0-.127 3.68l.374 3.734c.194 1.935-.1 3.888-.856 5.68a34.707 34.707 0 0 1-5.106-2.18v-.098l1.217-3.652a1.284 1.284 0 0 0-.31-1.314l-1.968-1.968.023-.058Zm29.271 18.333h-2.69l2.69-1.596v1.596Zm0-4.58-4.219 2.502a17.153 17.153 0 0 1-8.17 2.078H46.7v-8.372a37.003 37.003 0 0 0 19.162 3.528 14.052 14.052 0 0 0 9.071-4.369v4.633ZM55.216 59.434l-.373-3.734a11.32 11.32 0 0 1 .13-3.148c1.185.11 2.372.192 3.553.244a13.863 13.863 0 0 0 .2 3.387l.682 3.69a11.67 11.67 0 0 1-.89 7.017 34.399 34.399 0 0 1-4.238-.794 14.17 14.17 0 0 0 .937-6.662Zm.517-9.39c.25-.574.548-1.127.89-1.652.954.043 1.914.068 2.88.075a13.892 13.892 0 0 0-.58 1.776 72.69 72.69 0 0 1-3.19-.198Zm6.01 2.824c.983 0 1.97-.021 2.954-.06.065 1.12.267 2.23.6 3.302l1.118 3.583a11.683 11.683 0 0 1-.11 7.262c-.218.031-.437.057-.656.075-1.477.123-2.96.152-4.44.086a14.243 14.243 0 0 0 .723-7.708l-.682-3.691c-.173-.94-.227-1.9-.159-2.853.218.002.434.004.652.004Zm-.17-2.568c.2-.645.457-1.27.768-1.868.937-.03 1.88-.078 2.826-.145a13.89 13.89 0 0 0-.389 1.947 70.695 70.695 0 0 1-3.205.066Zm9.632 1.962c.1.565.235 1.124.406 1.671l1.085 3.469c.645 2.06.677 4.262.092 6.34a11.33 11.33 0 0 1-3.6 2.413 14.242 14.242 0 0 0-.323-7.226l-1.117-3.583a11.294 11.294 0 0 1-.49-2.684 73.808 73.808 0 0 0 3.947-.4Zm-3.81-2.184c.118-.694.3-1.376.545-2.037a75.08 75.08 0 0 0 3.264-.425 13.513 13.513 0 0 0-.196 2.081 72.044 72.044 0 0 1-3.613.382Zm7.54 5.88-.873-2.79c-.13-.42-.235-.846-.314-1.277a65.45 65.45 0 0 0 1.186-.204v4.27Zm0-6.88c-.451.085-.9.164-1.346.239.04-.733.155-1.46.341-2.169.336-.064.671-.13 1.004-.199v2.13Zm0-7.898c-.014-.005-.026-.012-.04-.018a1.283 1.283 0 0 0-1.674.702l-1.216 2.97c-.008.018-.014.037-.021.055-.978.167-1.962.313-2.952.44l.813-2.006a1.284 1.284 0 1 0-2.378-.964l-1.331 3.28a73.97 73.97 0 0 1-2.35.164l.98-1.773a1.283 1.283 0 0 0-2.245-1.241l-1.719 3.109a72.28 72.28 0 0 1-2.508-.015l1.024-1.537a1.284 1.284 0 0 0-2.135-1.424l-1.885 2.826A71.876 71.876 0 0 1 52 45.455a4.328 4.328 0 0 0 .524-3.81l-.057-.172a4.349 4.349 0 0 0-7.745-1.036 33.73 33.73 0 0 0-1.05 1.68l-1.31-.786-4.971-4.972-5.048-6.31a5.29 5.29 0 0 0 .96-1.976l.241-.96a5.293 5.293 0 0 0-5.135-6.58h-5.25a6.372 6.372 0 0 0-4.536 1.88l-2.045 2.044-5.253.75a5.124 5.124 0 0 0-3.125 1.7v-1.633a1.28 1.28 0 0 1 1.072-1.266l5.556-.925c.264-.044.507-.17.696-.359l2.353-2.352 7.412-2.47a1.283 1.283 0 0 0 .812-1.624l-.318-.954a7.059 7.059 0 0 1 .142-4.848l.486-1.214 8.93 14.51c.027.046.057.089.09.13l3.949 4.936a29.73 29.73 0 0 0 16.94 10.47l3.943.845c2.907.618 5.914.595 8.812-.07l5.858-1.352.001 2.45Zm0-5.083-6.436 1.485c-2.53.58-5.158.6-7.697.06l-3.943-.845a27.158 27.158 0 0 1-15.474-9.563l-3.9-4.874L27.26 5.744a1.284 1.284 0 0 0-2.285.196l-1.433 3.583a9.628 9.628 0 0 0-.278 6.348l-6.486 2.161a1.3 1.3 0 0 0-.502.31L14 20.619l-5.15.859a3.838 3.838 0 0 0-3.217 3.797V30.8a1.283 1.283 0 0 0 1.284 1.283h14.116v.49l-6.72 3.36h-1.621a3.209 3.209 0 0 0 0 6.417h4.491c.043 0 .086-.002.129-.007l.04-.006a1.21 1.21 0 0 0 .087-.013l.048-.012a1.241 1.241 0 0 0 .126-.038l.047-.016 5.503-2.201 3.118 4.157 2.503 8.755c.021.077.05.15.086.222l1.275 2.55a11.004 11.004 0 0 1 1.155 4.897v3.219a14.977 14.977 0 0 0 2.523 8.333l1.496 2.243H31.3v-2.566h-2.567v2.566H23.6V69.3h-2.567v5.133H15.9v-2.566h-2.567v2.566H3.067v-7.7h2.566v-2.566H3.067v-5.134H8.2v-2.566H3.067v-5.134h2.566v-2.566H3.067V11.55h2.566V8.983H3.067V2.567h6.416v2.566h2.567V2.567h5.133v6.416h2.567V2.567h15.4V7.7h2.567V2.567h5.133v2.566h2.567V2.567h5.133V7.7h2.567V2.567h5.133v2.566h2.567V2.567h6.416V7.7H69.8V2.567h5.133l.001 33.53Z" fill="#000"/><path d="M51.833 15.4H54.4v2.567h-2.567V15.4Zm5.134 0h10.266v2.567H56.967V15.4Zm-5.134 5.133H62.1V23.1H51.833v-2.567Zm12.834 0h2.566V23.1h-2.566v-2.567Z" fill="#000"/></svg>