<svg width="22" height="21" fill="none" xmlns="http://www.w3.org/2000/svg"><path d="M14.507 11.14v.08l.078.017c.721.164 1.25.768 1.25 1.476a.315.315 0 0 1-.63 0c0-.504-.469-.89-1.013-.89-.545 0-1.013.386-1.013.89s.468.89 1.013.89c.913 0 1.643.689 1.643 1.52 0 .709-.529 1.312-1.25 1.476l-.078.018v.26a.315.315 0 1 1-.63 0v-.26l-.078-.018c-.722-.164-1.25-.768-1.25-1.476a.315.315 0 0 1 .63 0c0 .505.468.89 1.013.89.544 0 1.013-.386 1.013-.89s-.469-.89-1.013-.89c-.913 0-1.643-.689-1.643-1.52 0-.708.528-1.312 1.25-1.476l.078-.018v-.296a.315.315 0 0 1 .63 0v.216Zm1.978-1.97a5.308 5.308 0 0 1 2.168 1.918 5.306 5.306 0 0 1 .218 5.34l.088.048-.088-.047a.315.315 0 0 1-.426.13.315.315 0 0 1-.13-.426 4.673 4.673 0 0 0 .544-2.188 4.693 4.693 0 0 0-2.647-4.208.315.315 0 1 1 .273-.568Zm-1.669.11a.315.315 0 1 1 0-.63h.028a.315.315 0 0 1-.002.63h-.027Zm-4.744 2.477a4.674 4.674 0 0 0-.543 2.188 4.693 4.693 0 0 0 2.646 4.207l.043-.09-.043.09a.315.315 0 0 1-.273.568 5.308 5.308 0 0 1-2.168-1.92 5.306 5.306 0 0 1-.218-5.34.315.315 0 1 1 .556.296Zm3.498 6.853h.001a.315.315 0 0 1 0 .63h-.027a.315.315 0 1 1 .003-.63h.024Z" fill="#fff" stroke="#fff" stroke-width=".2"/><path d="m15.986 7.184.019.045.047.013c2.936.814 5.097 3.511 5.097 6.703a6.963 6.963 0 0 1-6.955 6.955 6.937 6.937 0 0 1-5.08-2.21l-.03-.031H4.152c-.998 0-1.81-.812-1.81-1.81 0-.572.268-1.083.685-1.415l.098-.078-.098-.079a1.806 1.806 0 0 1 0-2.831l.098-.078-.098-.079a1.806 1.806 0 0 1 0-2.831l.098-.079-.098-.078a1.806 1.806 0 0 1-.685-1.416c0-.997.812-1.809 1.81-1.809h1.272l-.108-.156a1.798 1.798 0 0 1 0-2.045l.108-.157H1.909A1.81 1.81 0 0 1 .1 1.91C.1.912.912.1 1.91.1h10.167a1.811 1.811 0 0 1 1.491 2.831l-.107.157h3.513c.998 0 1.81.812 1.81 1.81 0 .997-.812 1.808-1.81 1.808h-1.27l.107.157c.069.1.127.207.175.321Zm-1.205-.17.052-.19a1.178 1.178 0 0 0-.515-.118H4.15a1.18 1.18 0 0 0 0 2.358h5.093l.029-.029a6.933 6.933 0 0 1 5.509-2.02Zm-6.208 2.84.116-.16H4.15a1.18 1.18 0 0 0 0 2.358H7.5l.021-.071a6.936 6.936 0 0 1 1.052-2.128Zm-1.24 2.945.02-.116H4.15a1.18 1.18 0 0 0 0 2.358h3.174l-.016-.114a6.984 6.984 0 0 1 .025-2.128Zm.142 2.946-.02-.074H4.15a1.18 1.18 0 0 0 0 2.358h4.414l-.107-.157a6.927 6.927 0 0 1-.982-2.127ZM18.153 4.897a1.18 1.18 0 0 0-1.179-1.179H6.806a1.18 1.18 0 0 0 0 2.358h10.168a1.18 1.18 0 0 0 1.18-1.179ZM.73 1.91c0 .65.529 1.18 1.18 1.18h10.167a1.18 1.18 0 0 0 0-2.359H1.91A1.18 1.18 0 0 0 .73 1.91Zm7.138 12.036a6.332 6.332 0 0 0 6.326 6.325 6.332 6.332 0 0 0 6.325-6.325 6.332 6.332 0 0 0-6.325-6.326 6.332 6.332 0 0 0-6.326 6.326Z" fill="#fff" stroke="#fff" stroke-width=".2"/></svg>