<svg width="68" height="77" fill="none" xmlns="http://www.w3.org/2000/svg"><path d="M51.522 41.839V35.5H33.776v6.338a5.07 5.07 0 0 0-5.07 5.07v22.816a5.07 5.07 0 0 0 5.07 5.07h17.746a5.07 5.07 0 0 0 5.07-5.07V46.909a5.07 5.07 0 0 0-5.07-5.07Z" fill="#6B9777"/><path d="M56.592 25.36v7.606a2.535 2.535 0 0 1-2.535 2.535H31.241a2.532 2.532 0 0 1-2.535-2.535V25.36a2.535 2.535 0 0 1 2.535-2.535h22.816a2.535 2.535 0 0 1 2.535 2.535Z" fill="#CBCBCB"/><path d="M28.706 49.444h27.886V67.19H28.706V49.444Z" fill="#E4E4E2"/><path d="M44.55 59.584h-3.802a1.901 1.901 0 0 0 0 3.803h3.802a1.901 1.901 0 0 0 0-3.803Zm-1.901-2.534a1.267 1.267 0 0 1-1.268-1.268v-1.268a1.268 1.268 0 0 1 2.535 0v1.268a1.268 1.268 0 0 1-1.267 1.267Zm-3.803 1.267a1.268 1.268 0 0 1-1.267-1.268v-1.267a1.268 1.268 0 0 1 2.535 0v1.267a1.267 1.267 0 0 1-1.268 1.268Zm7.606 0a1.268 1.268 0 0 1-1.268-1.268v-1.267a1.267 1.267 0 1 1 2.535 0v1.267a1.268 1.268 0 0 1-1.267 1.268Z" fill="#6B9777"/><path d="M1.267 76.064a1.267 1.267 0 0 1-1.135-1.83l7.87-15.905a1.267 1.267 0 1 1 2.271 1.124L2.405 75.358a1.267 1.267 0 0 1-1.137.706Z" fill="#C3C3C3"/><path d="M56.592 26.628v2.535H47.72a1.267 1.267 0 1 1 0-2.535h8.873Zm-13.943 2.535h-2.535a1.267 1.267 0 1 1 0-2.535h2.535a1.268 1.268 0 0 1 0 2.535Z" fill="#E4E4E2"/><path d="M64.197 54.514v-5.07h-10.14v5.07a2.535 2.535 0 0 0-2.535 2.535v15.21a2.535 2.535 0 0 0 2.535 2.536h10.14a2.535 2.535 0 0 0 2.535-2.535V57.05a2.535 2.535 0 0 0-2.535-2.536Z" fill="#A45E14"/><path d="M65.782 41.839h-13.31a.95.95 0 0 0-.95.95v5.704c0 .525.425.95.95.95h13.31a.95.95 0 0 0 .95-.95V42.79a.95.95 0 0 0-.95-.95Z" fill="#A8A8A8"/><path d="M51.522 59.584h15.21v10.14h-15.21v-10.14Z" fill="#F3AF3E"/><path d="M66.732 63.387v2.535H62.93a1.267 1.267 0 1 1 0-2.535h3.802Zm-8.872 2.535h-1.268a1.267 1.267 0 1 1 0-2.535h1.268a1.268 1.268 0 0 1 0 2.535Z" fill="#EA9D2D"/><path d="M33.776 35.5h17.746v2.536H33.776V35.5Z" fill="#5E8569"/><path d="M54.057 49.444h10.14v2.535h-10.14v-2.535Z" fill="#834B10"/><path d="m35.014 22.825-5.79 11.68a2.531 2.531 0 0 1-.518-1.54V25.36a2.535 2.535 0 0 1 2.535-2.535h3.773Z" fill="#B9B9B9"/><path d="m26 13.46 9.084 4.508L17.906 52.63a1.902 1.902 0 0 1-2.549.857L9.68 50.67a1.902 1.902 0 0 1-.857-2.549L26 13.46Z" fill="#EBEBEB"/><path d="m21.549 22.428 9.083 4.508L17.906 52.63a1.902 1.902 0 0 1-2.549.857L9.68 50.67a1.902 1.902 0 0 1-.857-2.549l12.726-25.693Z" fill="#F388A2"/><path d="m20.993 35.054 1.128-2.271 4.543 2.256-1.129 2.271-4.542-2.256Zm-2.254 4.544 1.128-2.272 4.543 2.257-1.128 2.271-4.543-2.256Zm-2.254 4.544 1.128-2.272 4.543 2.257-1.128 2.271-4.543-2.256Zm-2.254 4.544 1.128-2.272 4.543 2.257-1.128 2.271-4.543-2.256Z" fill="#CF748A"/><path d="M9.154 58.87a2.536 2.536 0 0 1-1.143-3.4l2.256-4.542 4.543 2.256-2.256 4.543a2.536 2.536 0 0 1-3.4 1.143Z" fill="#4799CF"/><path d="M24.94 28.294a1.268 1.268 0 0 1-1.135-1.83l9.55-19.253a1.268 1.268 0 0 1 2.27 1.126l-9.55 19.253a1.267 1.267 0 0 1-1.135.704Z" fill="#F3AF3E"/><path d="m29.414 15.154-5.609 11.31a1.268 1.268 0 1 0 2.272 1.126l5.608-11.308-2.27-1.128Z" fill="#EA9D2D"/><path d="m21.549 22.428 9.083 4.508-2.3 4.69-9.083-4.51 2.3-4.688Z" fill="#DA922A"/><path d="m31.074 6.065 6.814 3.384a2.536 2.536 0 0 0 2.257-4.543L33.33 1.522a2.536 2.536 0 1 0-2.256 4.543Z" fill="#4799CF"/><path d="M65.782 50.711A2.22 2.22 0 0 0 68 48.493V42.79a2.22 2.22 0 0 0-2.218-2.218H52.79v-3.803h1.267a3.807 3.807 0 0 0 3.803-3.802V25.36a3.807 3.807 0 0 0-3.803-3.802H34.719l1.5-3.027a1.267 1.267 0 0 0-.572-1.698l-3.403-1.69 2.818-5.67 2.27 1.128a3.802 3.802 0 1 0 3.382-6.813L33.902.406A3.803 3.803 0 1 0 30.52 7.22l2.27 1.127-2.816 5.67-3.41-1.692a1.268 1.268 0 0 0-1.699.572L7.687 47.558a3.174 3.174 0 0 0 .89 3.909L6.859 54.93a3.793 3.793 0 0 0 .68 4.337L.132 74.234a1.267 1.267 0 1 0 2.272 1.125l7.403-14.962a3.771 3.771 0 0 0 2.46-.545 3.814 3.814 0 0 0 1.404-1.541l1.72-3.464c.263.071.535.107.809.108a3.178 3.178 0 0 0 2.84-1.762l9.005-18.17a3.802 3.802 0 0 0 3.196 1.745h1.268v3.93a6.349 6.349 0 0 0-5.07 6.21v22.817a6.345 6.345 0 0 0 6.337 6.337h17.746c.482 0 .963-.054 1.433-.163a3.81 3.81 0 0 0 1.102.163h10.14A3.807 3.807 0 0 0 68 72.26V57.05a3.809 3.809 0 0 0-2.535-3.585V50.71h.317ZM31.648 4.948a1.268 1.268 0 0 1 1.127-2.27l6.812 3.38A1.268 1.268 0 1 1 38.46 8.33l-6.813-3.381Zm-.532 12.465 2.27 1.127-1.845 3.723-1.476 2.977-2.277-1.13 3.328-6.697Zm-4.543-2.254 2.272 1.127-3.328 6.696-2.264-1.123 3.32-6.7ZM11.4 57.184a1.268 1.268 0 0 1-2.27-1.127l1.69-3.407 2.27 1.127-1.69 3.407Zm14.095-22.721L22.1 32.777l-1.128 2.271 3.397 1.686-1.125 2.271-3.398-1.686-1.127 2.27 3.4 1.688-1.127 2.271-3.4-1.688-1.128 2.27 3.402 1.69-1.125 2.271-3.404-1.69-1.127 2.272 3.405 1.69-.844 1.703a.634.634 0 0 1-.85.286l-5.677-2.818a.635.635 0 0 1-.285-.85l9.85-19.875 6.812 3.381-1.126 2.273Zm3.31-6.678-1.059 2.135-6.804-3.378 1.053-2.146.132-.266 6.811 3.38-.134.275Zm2.436 6.448a1.269 1.269 0 0 1-1.267-1.267v-1.81l1.109-2.26 2.38-4.803h20.594a1.27 1.27 0 0 1 1.268 1.267v1.268h-7.606a1.268 1.268 0 0 0 0 2.535h7.606v3.803a1.27 1.27 0 0 1-1.268 1.267H31.241ZM29.974 46.91a3.807 3.807 0 0 1 3.802-3.803 1.267 1.267 0 0 0 1.268-1.267v-5.07h15.21v11.407h-20.28V46.91Zm3.802 26.618a3.807 3.807 0 0 1-3.802-3.802v-1.268h20.28v3.803c0 .432.074.86.218 1.267H33.776ZM50.254 57.05v8.873h-20.28v-15.21h22.815v2.752a3.809 3.809 0 0 0-2.535 3.585Zm15.211 15.21a1.27 1.27 0 0 1-1.268 1.268h-10.14a1.269 1.269 0 0 1-1.268-1.267v-1.268h12.676v1.268Zm0-8.872H62.93a1.268 1.268 0 0 0 0 2.535h2.535v2.535H52.789v-7.605h12.676v2.535Zm0-5.07H52.789V57.05a1.27 1.27 0 0 1 1.268-1.267h10.14a1.27 1.27 0 0 1 1.268 1.267v1.268Zm-10.14-5.07V50.71h7.605v2.535h-7.605Zm-2.536-5.07v-5.07h12.676v5.07H52.789Z" fill="#000"/><path d="M44.55 59.584h-3.802a1.901 1.901 0 0 0 0 3.803h3.802a1.901 1.901 0 1 0 0-3.803Zm-1.901-2.534a1.268 1.268 0 0 0 1.267-1.268v-1.268a1.268 1.268 0 0 0-2.535 0v1.268a1.268 1.268 0 0 0 1.268 1.267Zm-2.535 0v-1.268a1.267 1.267 0 1 0-2.535 0v1.267a1.268 1.268 0 0 0 2.535 0Zm6.338-2.536a1.268 1.268 0 0 0-1.268 1.268v1.267a1.268 1.268 0 1 0 2.535 0v-1.267a1.268 1.268 0 0 0-1.267-1.268Zm10.14 11.408h1.268a1.268 1.268 0 0 0 0-2.535h-1.268a1.268 1.268 0 0 0 0 2.535ZM40.114 29.163h2.535a1.268 1.268 0 1 0 0-2.535h-2.535a1.268 1.268 0 0 0 0 2.535Z" fill="#000"/></svg>