<svg width="76" height="76" fill="none" xmlns="http://www.w3.org/2000/svg"><path d="M74.672 18.984v37.97H56.953v17.718H18.984V56.953H1.266V18.984h17.718V1.266h37.97v17.718h17.718Z" fill="#6B9777"/><path d="M72.14 18.984v37.97H54.423v17.718H18.984V56.953H1.266V18.984h17.718V1.266h35.438v17.718H72.14Z" fill="#85BC94"/><path d="M20.25 50.625h-1.266a4.863 4.863 0 0 1-4.717-3.683l-1.61-6.442-.84.839a8.369 8.369 0 0 0-2.366 7.101 11.504 11.504 0 0 0 4.485 7.576 4.69 4.69 0 0 0 2.815.937h3.499v-6.328Z" fill="#744630"/><path d="m53.156 72.14-1.265 2.532H18.984V55.957c0-2.693.434-5.368 1.285-7.923l.69-2.068a24.37 24.37 0 0 1 5.891-9.535l.094-.093a25.086 25.086 0 0 0 5.333-7.87l1.352-3.155.543-1.266H30.53a5.069 5.069 0 0 1-4.91-3.835l-.624-2.493-.163-.652a2.534 2.534 0 0 1 2.456-3.145h4.352a10.814 10.814 0 0 1 4.697-5.857l.553-.33a9.872 9.872 0 0 1 9.49-.366l.055.029a9.868 9.868 0 0 1 5.455 8.826v54.651l1.265 1.266Z" fill="#F3AF3E"/><path d="M25.945 74.672a5.702 5.702 0 0 1-5.695-5.695v-.95a5.722 5.722 0 0 1 2.278-4.556 6.993 6.993 0 0 0 2.785-5.569v-.949a1.265 1.265 0 1 1 2.53 0v.95a9.54 9.54 0 0 1-3.796 7.593 3.18 3.18 0 0 0-1.266 2.531v.95a3.164 3.164 0 0 0 6.328 0v-.633a3.801 3.801 0 0 1 3.797-3.797 1.266 1.266 0 1 1 0 2.531 1.268 1.268 0 0 0-1.265 1.266v.633a5.701 5.701 0 0 1-5.696 5.695Z" fill="#CD761F"/><path d="m53.156 72.14-1.265 2.532H38.353a7.98 7.98 0 0 1-7.978-7.978c0-1.425.198-2.842.59-4.212l.188-.658a16.154 16.154 0 0 1 7.226-9.42 3.433 3.433 0 0 0 1.302-1.406l2.085-4.17H37.48a3.308 3.308 0 0 1-3.308-3.308V40.5h3.797l.315-.944a5.475 5.475 0 0 1 3.868-3.582l2.145-.536V31.64l3.697 2.773a7.173 7.173 0 0 1 2.128 2.55 16.748 16.748 0 0 1 1.769 7.49v26.421l1.265 1.266Z" fill="#E08122"/><path d="m43.927 46.458-1.266 1.266c-.238.237-.56.37-.895.37h-.633l.633-1.266H37.48a3.298 3.298 0 0 1-2.525-1.17 1.25 1.25 0 0 1 .483-.096h5.804l.894-.895a1.267 1.267 0 0 1 1.79 1.79Zm2.901 11.761a1.266 1.266 0 0 0-1.266 1.265v9.156a4.026 4.026 0 0 0-1.518-.296h-1.179l.173-.26a5.532 5.532 0 0 0-4.604-8.6h-.465a1.266 1.266 0 1 0 0 2.532h.465a3 3 0 0 1 2.498 4.665l-1.486 2.226a1.266 1.266 0 0 0 1.054 1.968h3.544a1.521 1.521 0 0 1 1.519 1.519v2.278h2.53V59.484a1.266 1.266 0 0 0-1.265-1.265Z" fill="#CD761F"/><path d="M51.89 16.453v3.591a3.797 3.797 0 1 1-7.593 0v-6.122h5.062l2.532 2.531Z" fill="#744630"/><path d="m40.13 22.411-2.531 2.531a1.27 1.27 0 0 1-.896.37H33.63l.543-1.265H30.53a5.04 5.04 0 0 1-3.212-1.152c.165-.075.345-.114.526-.114h8.335l2.16-2.16a1.265 1.265 0 1 1 1.79 1.79Zm-11.02-8.489v2.531a1.266 1.266 0 0 1-1.266 1.266h-2.848l-.163-.652a2.531 2.531 0 0 1 2.456-3.145h1.82Zm3.925 23.452a1.266 1.266 0 0 1-1.011-2.025 23.351 23.351 0 0 0 3.478-6.64 1.266 1.266 0 0 1 2.402.8 25.884 25.884 0 0 1-3.855 7.358 1.264 1.264 0 0 1-1.014.507Zm-8.988 18.314a1.266 1.266 0 0 1-1.266-1.266 20.39 20.39 0 0 1 4.05-12.15 1.265 1.265 0 1 1 2.025 1.519 17.83 17.83 0 0 0-3.544 10.63 1.265 1.265 0 0 1-1.265 1.267Zm13.922-39.235a1.266 1.266 0 1 0 0-2.531 1.266 1.266 0 0 0 0 2.531Z" fill="#D18D28"/><path d="M43.031 41.766a1.266 1.266 0 1 0 0-2.532 1.266 1.266 0 0 0 0 2.532Z" fill="#CD761F"/><path d="M74.672 17.719H58.219V1.266A1.266 1.266 0 0 0 56.953 0H18.984a1.266 1.266 0 0 0-1.265 1.266v16.453H1.266A1.266 1.266 0 0 0 0 18.984v37.97a1.266 1.266 0 0 0 1.266 1.265h16.453v16.453a1.266 1.266 0 0 0 1.265 1.266h37.97a1.266 1.266 0 0 0 1.265-1.266V58.219h16.453a1.266 1.266 0 0 0 1.266-1.266V18.984a1.266 1.266 0 0 0-1.266-1.265Zm-56.95 37.968h-.972c-.74 0-1.461-.24-2.054-.684a10.247 10.247 0 0 1-3.992-6.743 7.145 7.145 0 0 1 1.291-5.186l1.044 4.175a6.118 6.118 0 0 0 5.007 4.569 26.315 26.315 0 0 0-.325 3.87Zm2.528 17.72v-4.43a5.664 5.664 0 0 0 2.116 4.43H20.25Zm8.86-5.063v.633a3.164 3.164 0 0 1-6.329 0v-.95a3.182 3.182 0 0 1 1.266-2.53 9.491 9.491 0 0 0 3.797-7.595v-.949a1.266 1.266 0 0 0-2.532 0v.95a6.958 6.958 0 0 1-2.784 5.568 5.724 5.724 0 0 0-2.278 4.556v-12.07c0-1.703.183-3.4.545-5.063l.005-.024c.18-.823.403-1.637.67-2.436l.69-2.069a23.217 23.217 0 0 1 5.585-9.04l.094-.093a26.286 26.286 0 0 0 5.6-8.265l1.567-3.654h1.697a1.266 1.266 0 0 0 .895-.371l2.531-2.531a1.266 1.266 0 1 0-1.79-1.79l-2.16 2.16H30.53a3.79 3.79 0 0 1-3.683-2.876l-.23-.92h1.227a2.534 2.534 0 0 0 2.531-2.532v-1.265h1.266a1.265 1.265 0 0 0 1.2-.866 9.55 9.55 0 0 1 4.145-5.17l.557-.332a8.608 8.608 0 0 1 8.258-.325l.068.035a8.567 8.567 0 0 1 4.045 4.257 1.266 1.266 0 0 0-.555-.13h-5.062a1.266 1.266 0 0 0-1.266 1.265v6.122a5.052 5.052 0 0 0 7.594 4.381v10.921a8.525 8.525 0 0 0-1.871-1.946l-3.698-2.772a1.266 1.266 0 0 0-2.025 1.013v2.808l-1.186.297a6.71 6.71 0 0 0-4.762 4.41l-.027.078h-2.884a1.266 1.266 0 0 0-1.266 1.266v3.022a4.578 4.578 0 0 0 4.573 4.572h2.239l-1.17 2.338a2.157 2.157 0 0 1-.82.887 17.37 17.37 0 0 0-7.792 10.156l-.188.66a16.594 16.594 0 0 0-.639 4.559c0 .335.02.67.056 1.004-.037.213-.055.43-.056.646Zm-3.086-51.89v-.023a1.42 1.42 0 0 1 .013-.159l.008-.046c.01-.06.025-.12.044-.178l.008-.02a1.21 1.21 0 0 1 .067-.152l.024-.044a1.257 1.257 0 0 1 1.1-.644h.556v1.265h-1.82Zm24.601.523v3.067a2.531 2.531 0 1 1-5.063 0v-4.857h3.273l1.79 1.79ZM29.52 73.407a5.743 5.743 0 0 0 1.26-1.424c.36.515.771.992 1.228 1.423H29.52Zm21.588 0h-3.014V59.483a1.266 1.266 0 0 0-2.532 0v9.156a4.026 4.026 0 0 0-1.518-.296h-1.179l.173-.26a5.532 5.532 0 0 0-4.603-8.6h-.466a1.266 1.266 0 1 0 0 2.532h.465a3.002 3.002 0 0 1 2.497 4.665l-1.484 2.226a1.265 1.265 0 0 0 1.053 1.968h3.544a1.52 1.52 0 0 1 1.519 1.519v1.012h-7.21a6.72 6.72 0 0 1-6.712-6.712 14.1 14.1 0 0 1 .54-3.864l.189-.659a14.848 14.848 0 0 1 6.66-8.682 4.684 4.684 0 0 0 1.783-1.925l1.994-3.987 1.12-1.12a1.265 1.265 0 1 0-1.79-1.79l-.895.895h-3.763a2.044 2.044 0 0 1-2.041-2.04v-1.756h2.53a1.266 1.266 0 0 0 1.201-.866l.315-.944a4.194 4.194 0 0 1 2.975-2.754l2.145-.537a1.266 1.266 0 0 0 .959-1.227v-1.266l1.672 1.254a5.992 5.992 0 0 1 1.756 2.104 15.557 15.557 0 0 1 1.634 6.924v26.421a1.265 1.265 0 0 0 .37.895l.621.62-.508 1.016Zm22.298-17.72H56.953a1.265 1.265 0 0 0-1.266 1.266v16.453h-1.749l.35-.7a1.265 1.265 0 0 0-.237-1.46l-.895-.895V16.224a11.069 11.069 0 0 0-6.142-9.951l-.069-.036a11.134 11.134 0 0 0-10.703.412l-.555.332a12.08 12.08 0 0 0-4.922 5.675h-3.477a3.798 3.798 0 0 0-3.683 4.718l.786 3.145a6.318 6.318 0 0 0 6.139 4.793h1.722l-1.139 2.658a23.754 23.754 0 0 1-5.064 7.472l-.094.094a25.766 25.766 0 0 0-6.197 10.03l-.69 2.068a25.861 25.861 0 0 0-.502 1.699 3.589 3.589 0 0 1-3.072-2.698l-1.61-6.442a1.265 1.265 0 0 0-2.123-.588l-.838.839a9.682 9.682 0 0 0-2.725 8.173 12.75 12.75 0 0 0 3.463 7.07h-9.13V20.25h16.453a1.265 1.265 0 0 0 1.266-1.266V2.531h35.438v16.453a1.265 1.265 0 0 0 1.265 1.266h16.453v35.438Z" fill="#000"/><path d="M32.277 37.12a1.264 1.264 0 0 0 1.772-.253 25.881 25.881 0 0 0 3.855-7.357 1.266 1.266 0 0 0-2.402-.8 23.355 23.355 0 0 1-3.478 6.639 1.266 1.266 0 0 0 .253 1.772Zm-3.674 4.899a1.265 1.265 0 0 0-1.772.253 20.377 20.377 0 0 0-4.05 12.15 1.266 1.266 0 0 0 2.532 0 17.83 17.83 0 0 1 3.543-10.631 1.266 1.266 0 0 0-.253-1.772Zm9.366-25.566a1.266 1.266 0 1 0 0-2.531 1.266 1.266 0 0 0 0 2.531Zm5.062 25.313a1.266 1.266 0 1 0 0-2.532 1.266 1.266 0 0 0 0 2.532Z" fill="#000"/></svg>